<svg width="19" height="20" viewBox="0 0 19 20" fill="none" xmlns="http://www.w3.org/2000/svg">
<path d="M17.015 4.506H1.015V18.929C1.015 19.52 1.463 20 2.015 20H16.015C16.567 20 17.015 19.52 17.015 18.929C17.015 15.024 17.015 4.506 17.015 4.506ZM11.265 7C11.679 7 12.015 7.336 12.015 7.75V16.25C12.015 16.664 11.679 17 11.265 17C10.851 17 10.515 16.664 10.515 16.25V7.75C10.515 7.336 10.851 7 11.265 7ZM6.765 7C7.179 7 7.515 7.336 7.515 7.75V16.25C7.515 16.664 7.179 17 6.765 17C6.351 17 6.015 16.664 6.015 16.25V7.75C6.015 7.336 6.351 7 6.765 7ZM6.015 2V1C6.015 0.465 6.489 0 7.015 0H11.015C11.541 0 12.015 0.465 12.015 1V2H17.269C17.681 2 18.015 2.335 18.015 2.747C18.015 3.159 17.681 3.494 17.269 3.494H0.762C0.349 3.494 0.0150003 3.159 0.0150003 2.747C0.0150003 2.335 0.349 2 0.762 2H6.015ZM10.515 2V1.5H7.515V2H10.515Z" fill="black"/>
</svg>
